# xmcd
#
# Track frame offsets: 
#        150
#        14496
#        35264
#        56829
#        70387
#        87321
#        105223
#        118685
#        132223
#        155357
#        176208
#        198242
#        219160
#
# Disc length: 3175 seconds
#
# Revision: 0
# Processed by: cddbd v1.4PL0 Copyright (c) Steve Scherf et al.
# Submitted via: ExactAudioCopy v0.90b4
#
DISCID=ae0c650d
DTITLE=Van Morrison - Olympia Theatre Dublin 4 May Late, disc 1
DYEAR=2002
DGENRE=Celtic
TTITLE0=Inarticulate Speech Of The Heart # 1
TTITLE1=Celtic Swing
TTITLE2=Whining Boy Moan > The New Symphony Sid
TTITLE3=Days Like This
TTITLE4=Hey Mr DJ
TTITLE5=Into The Mystic
TTITLE6=Don't Worry About A Thing
TTITLE7=Baby Please Don't Go
TTITLE8=It Once Was My Life
TTITLE9=I Have Finally Come To Realize
TTITLE10=All Work And No Play
TTITLE11=Only A Dream
TTITLE12=Northern Muse (Solid Ground)
EXTD=
EXTT0=
EXTT1=
EXTT2=
EXTT3=
EXTT4=
EXTT5=
EXTT6=
EXTT7=
EXTT8=
EXTT9=
EXTT10=
EXTT11=
EXTT12=
PLAYORDER=
